Audio #1
ID                               : 2
Language                         : Hindi
Format                           : MPEG Audio
Format version                   : Version 1
Format profile                   : Layer 3
Codec ID                         : A_MPEG/L3
Codec ID/Hint                    : MP3
Duration                         : 2h 10mn
Bit rate mode                    : Constant
Bit rate                         : 320 Kbps
Channel(s)                       : 2 channels
Sampling rate                    : 44.1 KHz
Resolution                       : 16 bits
Stream size                      : 299 MiB (30%)
Writing library                  : LAME3.98.2

Audio #2
ID                               : 3
Language                         : English
Format                           : MPEG Audio
Format version                   : Version 1
Format profile                   : Layer 3
Codec ID                         : A_MPEG/L3
Codec ID/Hint                    : MP3
Duration                         : 2h 10mn
Bit rate mode                    : Constant
Bit rate                         : 96.0 Kbps
Channel(s)                       : 2 channels
Sampling rate                    : 48.0 KHz
Resolution                       : 16 bits
Stream size                      : 89.6 MiB (9%)


BY GAMBLER85

screenshots:-
 
http://www.freeimagehosting.net/uploads/0ca801cbc0.png 
http://www.freeimagehosting.net/uploads/710c348e3e.png 
http://www.freeimagehosting.net/uploads/1a0dd2c1f9.png 
http://www.freeimagehosting.net/uploads/90146920f6.png 
http://www.freeimagehosting.net/uploads/72b833bf5a.png 
http://www.freeimagehosting.net/uploads/e8a71eaf9c.png 
http://www.freeimagehosting.net/uploads/b20b3a8e8e.png
